# xmcd
#
# Track frame offsets: 
#        150
#        14030
#        25808
#        37585
#        52986
#        67348
#        79842
#        89594
#        99699
#        117641
#
# Disc length: 1680 seconds
#
# Revision: 0
# Processed by: cddbd v1.5.2PL0 Copyright (c) Steve Scherf et al.
# Submitted via: ExactAudioCopyFreeDBPlugin 1.0
#
DISCID=85068e0a
DTITLE=Various Artist - Country Legends
DYEAR=2009
DGENRE=Country
TTITLE0=Moe Bandy - I Cheated Me Right Out Of You
TTITLE1=Lynn Anderson - How Can I Unlove You
TTITLE2=Lacy J. Dalton - Hillbilly Girl With The Blues
TTITLE3=Holly Dunn - Daddy's Hand
TTITLE4=Exile - Woke Up In Love
TTITLE5=Freddy Fender - Wasted Days and Wasted Nights (Live)
TTITLE6=Mickey Gilley - True Love Ways
TTITLE7=Willie Nelson - Healing Hands of Time
TTITLE8=Juice Newton - Break It To Me Gently
TTITLE9=Waylon Jennings - Jolie Blonde
EXTD=
EXTT0=
EXTT1=
EXTT2=
EXTT3=
EXTT4=
EXTT5=
EXTT6=
EXTT7=
EXTT8=
EXTT9=
PLAYORDER=
